<svg width="22" height="22" viewBox="0 0 22 22" fill="none" xmlns="http://www.w3.org/2000/svg">
<path d="M0 9.6C0 6.23969 0 4.55953 0.653961 3.27606C1.2292 2.14708 2.14708 1.2292 3.27606 0.653961C4.55953 0 6.23969 0 9.6 0H12.4C15.7603 0 17.4405 0 18.7239 0.653961C19.8529 1.2292 20.7708 2.14708 21.346 3.27606C22 4.55953 22 6.23969 22 9.6V12.4C22 15.7603 22 17.4405 21.346 18.7239C20.7708 19.8529 19.8529 20.7708 18.7239 21.346C17.4405 22 15.7603 22 12.4 22H9.6C6.23969 22 4.55953 22 3.27606 21.346C2.14708 20.7708 1.2292 19.8529 0.653961 18.7239C0 17.4405 0 15.7603 0 12.4V9.6Z" fill="#77BB7E"/>
<path d="M6.05024 10.8995L9.35007 14.1993L15.9497 7.59964" stroke="white" stroke-linecap="square"/>
</svg>
