<svg width="245" height="80" viewBox="0 0 245 80" fill="none" xmlns="http://www.w3.org/2000/svg">
<g clip-path="url(#clip0_10245_5720)">
<path d="M208.65 64.133H216.762L219.803 56.0609H233.493L236.534 64.133H244.646L230.955 28.8154H222.337L208.65 64.133ZM222.34 49.2514L226.551 37.6458H226.753L230.963 49.2514H222.34ZM189.13 45.4638V35.8789H196.229C199.269 35.8789 201.3 37.8467 201.3 40.6713C201.3 43.496 199.273 45.4638 196.229 45.4638H189.13ZM181.521 64.133H189.126V52.5273H196.48C204.036 52.5273 209.157 47.5339 209.157 40.6713C209.157 33.8088 204.036 28.8154 196.48 28.8154H181.521V64.133ZM147.804 64.133H174.678V57.0695H155.409V49.5017H170.113V42.6884H155.409V35.8789H174.171V28.8154H147.804V64.133ZM124.477 64.133H132.083V35.8789H142.226V28.8154H114.338V35.8789H124.481V64.133H124.477Z" fill="white"/>
<path fill-rule="evenodd" clip-rule="evenodd" d="M54.7973 6.09316H61.7848C65.4384 6.09316 68.4555 8.93918 68.7101 12.5129C67.6235 10.1 65.1867 8.40886 62.371 8.40886H54.8003V6.09316H54.7973ZM39.792 6.09316H52.5234V8.41181H39.2443C36.3901 8.41181 33.9238 10.1501 32.8608 12.6131C33.0681 8.99221 36.1059 6.09316 39.792 6.09316ZM42.8328 11.9178H61.7818C65.4355 11.9178 68.4525 14.7638 68.7071 18.3375C67.6205 15.9246 65.1838 14.2335 62.3681 14.2335H42.8357V11.9178H42.8328ZM39.792 11.9178H40.5589V14.2364H39.2443C36.3901 14.2364 33.9238 15.9747 32.8608 18.4377C33.0681 14.8139 36.1059 11.9178 39.792 11.9178ZM39.792 17.7424H61.7818C65.4355 17.7424 68.4525 20.5884 68.7071 24.1621C67.6205 21.7492 65.1838 20.0581 62.3681 20.0581H39.2473C36.3931 20.0581 33.9267 21.7963 32.8638 24.2593C33.0681 20.6385 36.1059 17.7424 39.792 17.7424ZM49.4975 23.567H61.7818C65.4355 23.567 68.4525 26.413 68.7071 29.9867C67.6205 27.5738 65.1838 25.8827 62.3681 25.8827H49.5005V23.567H49.4975ZM39.792 23.567H47.2266V25.8856H39.2473C36.3931 25.8856 33.9267 27.6239 32.8638 30.0869C33.0681 26.4631 36.1059 23.567 39.792 23.567ZM39.792 29.3886H61.7818C65.4355 29.3886 68.4525 32.2347 68.7071 35.8084C67.6205 33.3955 65.1838 31.7043 62.3681 31.7043H39.2473C36.3931 31.7043 33.9267 33.4426 32.8638 35.9056C33.0681 32.2877 36.1059 29.3886 39.792 29.3886ZM58.4213 35.2133H61.7848C65.4384 35.2133 68.4555 38.0593 68.7101 41.633C67.6235 39.2201 65.1867 37.529 62.371 37.529H58.4243V35.2133H58.4213ZM39.792 35.2133H56.1475V37.529H39.2443C36.3901 37.529 33.9238 39.2672 32.8608 41.7302C33.0681 38.1123 36.1059 35.2133 39.792 35.2133ZM39.792 41.0379H61.7818C65.4355 41.0379 68.4525 43.8839 68.7071 47.4576C67.6205 45.0447 65.1838 43.3536 62.3681 43.3536H39.2473C36.3931 43.3536 33.9267 45.0918 32.8638 47.5548C33.0681 43.9369 36.1059 41.0379 39.792 41.0379ZM42.895 46.8625H61.7818C65.4355 46.8625 68.4525 49.7085 68.7071 53.2822C67.6205 50.8693 65.1838 49.1782 62.3681 49.1782H42.895V46.8625ZM39.792 46.8625H40.6211V49.1811H39.2443C36.3901 49.1811 33.9238 50.9194 32.8608 53.3824C33.0681 49.7615 36.1059 46.8625 39.792 46.8625ZM39.792 52.6871H61.7818C65.4355 52.6871 68.4525 55.5331 68.7071 59.1068C67.6205 56.6939 65.1838 55.0028 62.3681 55.0028H39.2473C36.3931 55.0028 33.9267 56.741 32.8638 59.204C33.0681 55.5861 36.1059 52.6871 39.792 52.6871ZM56.103 58.5117H61.7848C65.4384 58.5117 68.4555 61.3577 68.7101 64.9314C67.6235 62.5185 65.1867 60.8274 62.371 60.8274H56.103V58.5117ZM39.792 58.5117H53.8292V60.8303H39.2443C36.3901 60.8303 33.9238 62.5686 32.8608 65.0316C33.0681 61.4107 36.1059 58.5117 39.792 58.5117ZM39.792 64.3363H61.7818C65.4355 64.3363 68.4525 67.1823 68.7071 70.756C67.6205 68.3431 65.1838 66.652 62.3681 66.652H39.2473C36.3931 66.652 33.9267 68.3902 32.8638 70.8533C33.0681 67.2353 36.1059 64.3363 39.792 64.3363ZM47.0726 70.1609H61.7848C65.4384 70.1609 68.4555 73.0069 68.7101 76.5806C67.6235 74.1677 65.1867 72.4766 62.371 72.4766H47.0726V70.1609ZM39.792 70.1609H44.7987V72.4795H39.2443C36.3901 72.4795 33.9238 74.2178 32.8608 76.6808C33.0681 73.057 36.1059 70.1609 39.792 70.1609ZM39.792 0.268555H61.7818C65.4355 0.268555 68.4525 3.11457 68.7071 6.68829C67.6205 4.27537 65.1838 2.58426 62.3681 2.58426H39.2473C36.3931 2.58426 33.9267 4.32251 32.8638 6.78552C33.0681 3.1676 36.1059 0.268555 39.792 0.268555Z" fill="white"/>
<path fill-rule="evenodd" clip-rule="evenodd" d="M82.1405 32.5531H94.4249C98.0785 32.5531 101.096 35.3991 101.35 38.9729C100.264 36.5599 97.8268 34.8688 95.0111 34.8688H82.1435V32.5531H82.1405ZM72.4351 32.5531H79.8696V34.8718H72.3995V32.5561L72.4351 32.5531ZM72.4351 38.3777H94.4249C98.0785 38.3777 101.096 41.2237 101.35 44.7975C100.264 42.3845 97.8268 40.6934 95.0111 40.6934H72.3995V38.3777H72.4351ZM91.0644 44.2023H94.4278C98.0814 44.2023 101.098 47.0484 101.353 50.6221C100.266 48.2091 97.8298 46.518 95.0141 46.518H91.0673V44.2023H91.0644ZM72.4351 44.2023H88.7905V46.518H72.3966V44.2023H72.4351ZM72.4351 50.0269H94.4249C98.0785 50.0269 101.096 52.873 101.35 56.4467C100.264 54.0338 97.8268 52.3426 95.0111 52.3426H72.3995V50.0269H72.4351ZM78.6646 55.8486H94.4278C98.0814 55.8486 101.098 58.6946 101.353 62.2683C100.266 59.8554 97.8298 58.1643 95.0141 58.1643H78.6646V55.8486ZM72.3877 55.8486H76.3907V58.1673H72.3877V55.8486ZM72.4351 61.6732H94.4249C98.0785 61.6732 101.096 64.5192 101.35 68.0929C100.264 65.68 97.8268 63.9889 95.0111 63.9889H72.3995V61.6732H72.4351ZM88.7461 67.4978H94.4278C98.0814 67.4978 101.098 70.3438 101.353 73.9176C100.266 71.5046 97.8298 69.8135 95.0141 69.8135H88.749V67.4978H88.7461ZM72.4351 67.4978H86.4722V69.8165H72.3966V67.5008L72.4351 67.4978ZM72.4351 73.3224H94.4249C98.0785 73.3224 101.096 76.1684 101.35 79.7422C100.264 77.3292 97.8268 75.6381 95.0111 75.6381H72.3995V73.3224H72.4351ZM72.4351 26.7285H94.4249C98.0785 26.7285 101.096 29.5745 101.35 33.1483C100.264 30.7353 97.8268 29.0442 95.0111 29.0442H72.3995V26.7285H72.4351Z" fill="#EFEBE2"/>
<path fill-rule="evenodd" clip-rule="evenodd" d="M15.7743 43.7602H28.9942V46.0759H15.7743V43.7602ZM7.00738 43.7602H13.5034V46.0759H6.45963C3.60543 46.0759 1.1391 47.8141 0.0761719 50.2771C0.280466 46.6592 3.31823 43.7602 7.00738 43.7602ZM24.2925 49.5848H28.9942V51.9034H24.2925V49.5848ZM7.00738 49.5848H22.0215V51.9034H6.45963C3.60543 51.9034 1.1391 53.6417 0.0761719 56.1047C0.280466 52.4838 3.31823 49.5848 7.00738 49.5848ZM7.00738 55.4094H28.9972V57.728H6.45963C3.60543 57.728 1.1391 59.4663 0.0761719 61.9293C0.280466 58.3084 3.31823 55.4094 7.00738 55.4094ZM15.7447 61.234H28.9972V63.5526H15.7447V61.234ZM7.00738 61.234H13.4737V63.5526H6.45963C3.60543 63.5526 1.1391 65.2909 0.0761719 67.7539C0.280466 64.1301 3.31823 61.234 7.00738 61.234ZM7.00738 67.0586H28.9972V69.3772H6.45963C3.60543 69.3772 1.1391 71.1155 0.0761719 73.5785C0.280466 69.9547 3.31823 67.0586 7.00738 67.0586ZM24.4524 72.8832H28.9972V75.2018H24.4524V72.8832ZM7.00738 72.8832H22.1814V75.2018H6.45963C3.60543 75.2018 1.1391 76.9401 0.0761719 79.4031C0.280466 75.7793 3.31823 72.8832 7.00738 72.8832ZM7.00738 37.9355H28.9972V40.2512H6.45963C3.60543 40.2512 1.1391 41.9895 0.0761719 44.4525C0.280466 40.8346 3.31823 37.9355 7.00738 37.9355Z" fill="#EFEBE2"/>
</g>
<defs>
<clipPath id="clip0_10245_5720">
<rect width="245" height="80" fill="white"/>
</clipPath>
</defs>
</svg>
