<svg width="153" height="50" viewBox="0 0 153 50" fill="none" xmlns="http://www.w3.org/2000/svg">
<g clip-path="url(#clip0_10757_7578)">
<path d="M130.3 40.0827H135.366L137.265 35.0377H145.814L147.713 40.0827H152.779L144.229 18.0093H138.847L130.3 40.0827ZM138.849 30.7818L141.479 23.5282H141.605L144.234 30.7818H138.849ZM118.11 28.4145V22.424H122.543C124.442 22.424 125.71 23.6538 125.71 25.4192C125.71 27.1846 124.444 28.4145 122.543 28.4145H118.11ZM113.358 40.0827H118.108V32.8292H122.7C127.418 32.8292 130.616 29.7083 130.616 25.4192C130.616 21.1301 127.418 18.0093 122.7 18.0093H113.358V40.0827ZM92.3022 40.0827H109.085V35.668H97.0516V30.9382H106.234V26.6799H97.0516V22.424H108.768V18.0093H92.3022V40.0827ZM77.7351 40.0827H82.4845V22.424H88.8187V18.0093H71.4033V22.424H77.7375V40.0827H77.7351Z" fill="#77BB7E"/>
<path fill-rule="evenodd" clip-rule="evenodd" d="M34.2206 3.80835H38.5842C40.8658 3.80835 42.75 5.58711 42.909 7.82068C42.2304 6.31261 40.7087 5.25566 38.9503 5.25566H34.2224V3.80835H34.2206ZM24.85 3.80835H32.8006V5.2575H24.5079C22.7255 5.2575 21.1853 6.34391 20.5215 7.88329C20.6509 5.62025 22.548 3.80835 24.85 3.80835ZM26.7489 7.44873H38.5824C40.864 7.44873 42.7481 9.22749 42.9071 11.4611C42.2285 9.95299 40.7068 8.89604 38.9484 8.89604H26.7507V7.44873H26.7489ZM24.85 7.44873H25.3288V8.89788H24.5079C22.7255 8.89788 21.1853 9.98429 20.5215 11.5237C20.6509 9.25879 22.548 7.44873 24.85 7.44873ZM24.85 11.0891H38.5824C40.864 11.0891 42.7481 12.8679 42.9071 15.1014C42.2285 13.5934 40.7068 12.5364 38.9484 12.5364H24.5097C22.7273 12.5364 21.1871 13.6228 20.5233 15.1622C20.6509 12.8992 22.548 11.0891 24.85 11.0891ZM30.9109 14.7295H38.5824C40.864 14.7295 42.7481 16.5082 42.9071 18.7418C42.2285 17.2337 40.7068 16.1768 38.9484 16.1768H30.9128V14.7295H30.9109ZM24.85 14.7295H29.4928V16.1786H24.5097C22.7273 16.1786 21.1871 17.2651 20.5233 18.8044C20.6509 16.5396 22.548 14.7295 24.85 14.7295ZM24.85 18.368H38.5824C40.864 18.368 42.7481 20.1468 42.9071 22.3804C42.2285 20.8723 40.7068 19.8153 38.9484 19.8153H24.5097C22.7273 19.8153 21.1871 20.9017 20.5233 22.4411C20.6509 20.1799 22.548 18.368 24.85 18.368ZM36.4838 22.0084H38.5842C40.8658 22.0084 42.75 23.7872 42.909 26.0207C42.2304 24.5127 40.7087 23.4557 38.9503 23.4557H36.4856V22.0084H36.4838ZM24.85 22.0084H35.0637V23.4557H24.5079C22.7255 23.4557 21.1853 24.5421 20.5215 26.0815C20.6509 23.8203 22.548 22.0084 24.85 22.0084ZM24.85 25.6488H38.5824C40.864 25.6488 42.7481 27.4275 42.9071 29.6611C42.2285 28.153 40.7068 27.0961 38.9484 27.0961H24.5097C22.7273 27.0961 21.1871 28.1825 20.5233 29.7219C20.6509 27.4607 22.548 25.6488 24.85 25.6488ZM26.7877 29.2892H38.5824C40.864 29.2892 42.7481 31.0679 42.9071 33.3015C42.2285 31.7934 40.7068 30.7365 38.9484 30.7365H26.7877V29.2892ZM24.85 29.2892H25.3677V30.7383H24.5079C22.7255 30.7383 21.1853 31.8247 20.5215 33.3641C20.6509 31.1011 22.548 29.2892 24.85 29.2892ZM24.85 32.9295H38.5824C40.864 32.9295 42.7481 34.7083 42.9071 36.9419C42.2285 35.4338 40.7068 34.3769 38.9484 34.3769H24.5097C22.7273 34.3769 21.1871 35.4633 20.5233 37.0026C20.6509 34.7415 22.548 32.9295 24.85 32.9295ZM35.036 36.5699H38.5842C40.8658 36.5699 42.75 38.3487 42.909 40.5823C42.2304 39.0742 40.7087 38.0172 38.9503 38.0172H35.036V36.5699ZM24.85 36.5699H33.616V38.0191H24.5079C22.7255 38.0191 21.1853 39.1055 20.5215 40.6449C20.6509 38.3818 22.548 36.5699 24.85 36.5699ZM24.85 40.2103H38.5824C40.864 40.2103 42.7481 41.9891 42.9071 44.2226C42.2285 42.7146 40.7068 41.6576 38.9484 41.6576H24.5097C22.7273 41.6576 21.1871 42.744 20.5233 44.2834C20.6509 42.0222 22.548 40.2103 24.85 40.2103ZM29.3966 43.8507H38.5842C40.8658 43.8507 42.75 45.6295 42.909 47.863C42.2304 46.3549 40.7087 45.298 38.9503 45.298H29.3966V43.8507ZM24.85 43.8507H27.9766V45.2998H24.5079C22.7255 45.2998 21.1853 46.3862 20.5215 47.9256C20.6509 45.6607 22.548 43.8507 24.85 43.8507ZM24.85 0.167969H38.5824C40.864 0.167969 42.7481 1.94673 42.9071 4.18031C42.2285 2.67223 40.7068 1.61528 38.9484 1.61528H24.5097C22.7273 1.61528 21.1871 2.70169 20.5233 4.24107C20.6509 1.97987 22.548 0.167969 24.85 0.167969Z" fill="#77BB7E"/>
<path fill-rule="evenodd" clip-rule="evenodd" d="M51.2961 20.3459H58.9676C61.2492 20.3459 63.1333 22.1247 63.2923 24.3583C62.6137 22.8502 61.092 21.7933 59.3336 21.7933H51.298V20.3459H51.2961ZM45.2352 20.3459H49.8779V21.7951H45.213V20.3478L45.2352 20.3459ZM45.2352 23.9863H58.9676C61.2492 23.9863 63.1333 25.7651 63.2923 27.9987C62.6137 26.4906 61.092 25.4336 59.3336 25.4336H45.213V23.9863H45.2352ZM56.869 27.6267H58.9694C61.251 27.6267 63.1352 29.4055 63.2942 31.639C62.6156 30.131 61.0939 29.074 59.3355 29.074H56.8708V27.6267H56.869ZM45.2352 27.6267H55.4489V29.074H45.2111V27.6267H45.2352ZM45.2352 31.2671H58.9676C61.2492 31.2671 63.1333 33.0458 63.2923 35.2794C62.6137 33.7713 61.092 32.7144 59.3336 32.7144H45.213V31.2671H45.2352ZM49.1254 34.9056H58.9694C61.251 34.9056 63.1352 36.6844 63.2942 38.918C62.6156 37.4099 61.0939 36.3529 59.3355 36.3529H49.1254V34.9056ZM45.2056 34.9056H47.7054V36.3548H45.2056V34.9056ZM45.2352 38.546H58.9676C61.2492 38.546 63.1333 40.3248 63.2923 42.5583C62.6137 41.0503 61.092 39.9933 59.3336 39.9933H45.213V38.546H45.2352ZM55.4212 42.1864H58.9694C61.251 42.1864 63.1352 43.9651 63.2942 46.1987C62.6156 44.6906 61.0939 43.6337 59.3355 43.6337H55.423V42.1864H55.4212ZM45.2352 42.1864H54.0012V43.6355H45.2111V42.1882L45.2352 42.1864ZM45.2352 45.8268H58.9676C61.2492 45.8268 63.1333 47.6055 63.2923 49.8391C62.6137 48.331 61.092 47.2741 59.3336 47.2741H45.213V45.8268H45.2352ZM45.2352 16.7056H58.9676C61.2492 16.7056 63.1333 18.4843 63.2923 20.7179C62.6137 19.2098 61.092 18.1529 59.3336 18.1529H45.213V16.7056H45.2352Z" fill="#057861"/>
<path fill-rule="evenodd" clip-rule="evenodd" d="M9.85116 27.3503H18.1069V28.7977H9.85116V27.3503ZM4.37632 27.3503H8.43299V28.7977H4.03426C2.25184 28.7977 0.711636 29.8841 0.0478516 31.4234C0.175431 29.1622 2.07249 27.3503 4.37632 27.3503ZM15.1707 30.9907H18.1069V32.4399H15.1707V30.9907ZM4.37632 30.9907H13.7525V32.4399H4.03426C2.25184 32.4399 0.711636 33.5263 0.0478516 35.0657C0.175431 32.8026 2.07249 30.9907 4.37632 30.9907ZM4.37632 34.6311H18.1087V36.0803H4.03426C2.25184 36.0803 0.711636 37.1667 0.0478516 38.706C0.175431 36.443 2.07249 34.6311 4.37632 34.6311ZM9.83267 38.2715H18.1087V39.7206H9.83267V38.2715ZM4.37632 38.2715H8.4145V39.7206H4.03426C2.25184 39.7206 0.711636 40.807 0.0478516 42.3464C0.175431 40.0815 2.07249 38.2715 4.37632 38.2715ZM4.37632 41.9119H18.1087V43.361H4.03426C2.25184 43.361 0.711636 44.4474 0.0478516 45.9868C0.175431 43.7219 2.07249 41.9119 4.37632 41.9119ZM15.2705 45.5522H18.1087V47.0014H15.2705V45.5522ZM4.37632 45.5522H13.8524V47.0014H4.03426C2.25184 47.0014 0.711636 48.0878 0.0478516 49.6272C0.175431 47.3623 2.07249 45.5522 4.37632 45.5522ZM4.37632 23.71H18.1087V25.1573H4.03426C2.25184 25.1573 0.711636 26.2437 0.0478516 27.7831C0.175431 25.5219 2.07249 23.71 4.37632 23.71Z" fill="#057861"/>
</g>
<defs>
<clipPath id="clip0_10757_7578">
<rect width="153" height="50" fill="white"/>
</clipPath>
</defs>
</svg>
