<svg width="40" height="40" viewBox="0 0 40 40" fill="none" xmlns="http://www.w3.org/2000/svg">
<path d="M40 0V40H0V0H40Z" fill="white" fill-opacity="0.01"/>
<path d="M26.7344 28.8662C26.9922 27.9828 27.9172 27.4758 28.8008 27.7334C29.9142 28.058 30.936 28.4746 31.7168 29.0098C32.4436 29.508 33.334 30.3768 33.334 31.666C33.334 32.9721 32.4211 33.8465 31.6836 34.3447C30.8879 34.8822 29.8456 35.3009 28.708 35.626C26.4099 36.2825 23.332 36.666 20.001 36.666C16.6699 36.666 13.592 36.2825 11.2939 35.626C10.1563 35.3009 9.11405 34.8822 8.31836 34.3447C7.58082 33.8465 6.66799 32.9721 6.66797 31.666C6.66797 30.3768 7.5583 29.508 8.28516 29.0098C9.06598 28.4746 10.0877 28.058 11.2012 27.7334C12.0847 27.4758 13.0098 27.9828 13.2676 28.8662C13.5252 29.7499 13.0175 30.6759 12.1338 30.9336C11.2994 31.1769 10.6997 31.4347 10.3154 31.666C10.7132 31.9055 11.3383 32.1721 12.209 32.4209C14.1333 32.9707 16.8889 33.333 20.001 33.333C23.113 33.333 25.8686 32.9707 27.793 32.4209C28.6636 32.1721 29.2887 31.9055 29.6865 31.666C29.3023 31.4347 28.7025 31.1769 27.8682 30.9336C26.9845 30.6759 26.4767 29.7499 26.7344 28.8662ZM20.001 3.33301C26.9044 3.33301 32.5008 8.9296 32.501 15.833C32.501 20.1127 30.168 23.5933 27.751 26.0645C25.317 28.5529 22.605 30.2187 21.4102 30.8936C20.5304 31.3904 19.4716 31.3904 18.5918 30.8936C17.397 30.2187 14.6849 28.5529 12.251 26.0645C9.83396 23.5933 7.50098 20.1127 7.50098 15.833C7.50115 8.9296 13.0975 3.33301 20.001 3.33301ZM20.001 12.5C18.1601 12.5 16.6681 13.9922 16.668 15.833C16.668 17.674 18.16 19.166 20.001 19.166C21.8419 19.166 23.334 17.674 23.334 15.833C23.3338 13.9922 21.8418 12.5 20.001 12.5Z" fill="#057861"/>
</svg>
